<svg xmlns="http://www.w3.org/2000/svg" width="1024" height="512" viewBox="0 0 1024 512"><rect width="1024" height="512" fill="#10203b"/><g fill="#3b82a0" opacity=".95"><path d="M80 120l80-55 75 18 28 55-38 42-72-8-30 37-47-31zM258 218l95-37 87 35 34 70-43 38-70-20-55 32-62-36zM470 80l60-35 74 31 22 55-46 35-69-11-48-42zM610 150l62-27 84 35 16 55-42 44-76-12-41-54zM760 300l91-27 70 42-24 57-87 8-53-36zM540 310l51-19 47 30-13 63-65 24-44-43z"/></g><g fill="none" stroke="#6dd5ed" opacity=".32"><path d="M0 128h1024M0 256h1024M0 384h1024"/><path d="M128 0v512M256 0v512M384 0v512M512 0v512M640 0v512M768 0v512M896 0v512"/></g></svg>
